<svg width="298" height="298" viewBox="0 0 298 298" fill="none" xmlns="http://www.w3.org/2000/svg">
<circle cx="149" cy="149" r="34" fill="#E7E7E7"/>
<mask id="path-2-inside-1_525_11" fill="white">
<path d="M238.6 114.534C230.626 93.805 215.711 76.4817 196.397 65.5163C177.082 54.5508 154.563 50.6216 132.677 54.3981C110.79 58.1746 90.8897 69.4232 76.3669 86.2273C61.8441 103.031 53.5971 124.351 53.0312 146.554C52.4653 168.757 59.6154 190.469 73.2633 207.991C86.9112 225.513 106.212 237.761 127.878 242.648C149.544 247.534 172.234 244.757 192.082 234.79C211.93 224.823 227.708 208.282 236.728 187.986L216.575 179.03C209.627 194.664 197.474 207.405 182.185 215.082C166.897 222.76 149.419 224.899 132.73 221.135C116.042 217.371 101.174 207.937 90.6616 194.44C80.1489 180.943 74.6413 164.218 75.0772 147.116C75.5131 130.014 81.8656 113.591 93.0522 100.648C104.239 87.7037 119.568 79.0391 136.426 76.1302C153.285 73.2212 170.631 76.2478 185.509 84.6942C200.386 93.1407 211.875 106.484 218.017 122.452L238.6 114.534Z"/>
</mask>
<path d="M238.6 114.534C230.626 93.805 215.711 76.4817 196.397 65.5163C177.082 54.5508 154.563 50.6216 132.677 54.3981C110.79 58.1746 90.8897 69.4232 76.3669 86.2273C61.8441 103.031 53.5971 124.351 53.0312 146.554C52.4653 168.757 59.6154 190.469 73.2633 207.991C86.9112 225.513 106.212 237.761 127.878 242.648C149.544 247.534 172.234 244.757 192.082 234.79C211.93 224.823 227.708 208.282 236.728 187.986L216.575 179.03C209.627 194.664 197.474 207.405 182.185 215.082C166.897 222.76 149.419 224.899 132.73 221.135C116.042 217.371 101.174 207.937 90.6616 194.44C80.1489 180.943 74.6413 164.218 75.0772 147.116C75.5131 130.014 81.8656 113.591 93.0522 100.648C104.239 87.7037 119.568 79.0391 136.426 76.1302C153.285 73.2212 170.631 76.2478 185.509 84.6942C200.386 93.1407 211.875 106.484 218.017 122.452L238.6 114.534Z" stroke="#E7E7E7" stroke-width="30" mask="url(#path-2-inside-1_525_11)"/>
<mask id="path-3-inside-2_525_11" fill="white">
<path d="M289.65 99.8214C278.247 67.2096 255.866 39.5737 226.337 21.6421C196.807 3.71045 161.964 -3.40242 127.768 1.52046C93.573 6.44333 62.1511 23.096 38.8787 48.6292C15.6063 74.1624 1.92978 106.989 0.189221 141.493C-1.55134 175.997 8.75221 210.034 29.337 237.779C49.9217 265.525 79.5083 285.255 113.035 293.594C146.561 301.933 181.943 298.363 213.127 283.494C244.312 268.625 269.36 243.382 283.987 212.083L264.16 202.818C251.682 229.519 230.313 251.055 203.708 263.74C177.104 276.425 146.919 279.471 118.317 272.356C89.7152 265.242 64.4743 248.41 46.913 224.739C29.3517 201.069 20.5615 172.032 22.0464 142.596C23.5313 113.16 35.199 85.1545 55.0532 63.3716C74.9074 41.5887 101.714 27.3819 130.887 23.1821C160.059 18.9823 189.785 25.0505 214.978 40.3483C240.17 55.6461 259.264 79.2229 268.992 107.045L289.65 99.8214Z"/>
</mask>
<path d="M289.65 99.8214C278.247 67.2096 255.866 39.5737 226.337 21.6421C196.807 3.71045 161.964 -3.40242 127.768 1.52046C93.573 6.44333 62.1511 23.096 38.8787 48.6292C15.6063 74.1624 1.92978 106.989 0.189221 141.493C-1.55134 175.997 8.75221 210.034 29.337 237.779C49.9217 265.525 79.5083 285.255 113.035 293.594C146.561 301.933 181.943 298.363 213.127 283.494C244.312 268.625 269.36 243.382 283.987 212.083L264.16 202.818C251.682 229.519 230.313 251.055 203.708 263.74C177.104 276.425 146.919 279.471 118.317 272.356C89.7152 265.242 64.4743 248.41 46.913 224.739C29.3517 201.069 20.5615 172.032 22.0464 142.596C23.5313 113.16 35.199 85.1545 55.0532 63.3716C74.9074 41.5887 101.714 27.3819 130.887 23.1821C160.059 18.9823 189.785 25.0505 214.978 40.3483C240.17 55.6461 259.264 79.2229 268.992 107.045L289.65 99.8214Z" stroke="#E7E7E7" stroke-width="30" mask="url(#path-3-inside-2_525_11)"/>
</svg>

